<?xml version="1.0" standalone="no"?>
<!DOCTYPE svg PUBLIC "-//W3C//DTD SVG 20010904//EN"
 "http://www.w3.org/TR/2001/REC-SVG-20010904/DTD/svg10.dtd">
<svg version="1.0" xmlns="http://www.w3.org/2000/svg"
 width="512.000000pt" height="512.000000pt" viewBox="0 0 512.000000 512.000000"
 preserveAspectRatio="xMidYMid meet">
<metadata>
Created by potrace 1.16, written by Peter Selinger 2001-2019
</metadata>
<g transform="translate(0.000000,512.000000) scale(0.100000,-0.100000)"
fill="#000000" stroke="none">
<path d="M2403 3746 c-348 -66 -662 -305 -823 -626 -102 -204 -140 -402 -120
-627 17 -195 69 -348 172 -504 183 -278 449 -451 799 -519 31 -6 66 -20 77
-30 24 -22 32 -25 32 -10 0 21 -154 110 -268 154 -128 50 -245 113 -327 176
-79 61 -224 216 -276 295 -66 100 -145 260 -164 330 -34 132 -30 326 11 490
61 243 258 523 467 664 390 263 819 259 1197 -13 235 -169 400 -427 451 -706
19 -106 17 -344 -5 -448 -101 -482 -493 -850 -971 -913 -55 -7 -89 -15 -76
-17 42 -7 183 18 275 49 436 145 744 521 797 970 56 487 -170 926 -602 1163
-96 52 -258 103 -374 116 -170 19 -198 20 -272 6z"/>
<path d="M3020 3706 c0 -9 7 -16 16 -16 9 0 14 5 12 12 -6 18 -28 21 -28 4z"/>
<path d="M2435 3660 c-93 -15 -223 -58 -305 -102 -256 -137 -425 -347 -516
-643 -27 -85 -28 -100 -28 -285 0 -184 1 -200 27 -285 56 -180 154 -342 290
-478 116 -117 287 -233 425 -290 75 -31 81 -32 232 -32 180 0 227 10 386 85
125 59 204 112 296 198 163 154 267 344 313 571 26 126 17 381 -18 512 -45
171 -135 325 -264 452 -146 143 -317 240 -500 281 -90 20 -258 28 -338 16z
m307 -24 c339 -65 649 -330 759 -648 47 -137 62 -251 56 -423 -6 -171 -28
-268 -96 -412 -57 -119 -102 -184 -192 -277 -280 -292 -692 -404 -983 -268
-202 95 -399 264 -521 447 -183 274 -225 622 -112 925 123 326 413 583 740
654 83 19 258 19 349 2z"/>
<path d="M2340 3500 c-256 -69 -463 -248 -566 -490 -93 -216 -91 -512 4 -723
89 -194 284 -396 482 -497 66 -34 181 -70 221 -70 20 0 29 -5 29 -16 0 -14 11
-15 88 -9 260 22 481 141 636 345 211 277 253 672 105 989 -103 221 -301 388
-545 462 -105 32 -351 37 -454 9z m431 -21 c187 -46 376 -174 479 -324 l30
-43 -22 -14 -22 -15 25 -79 c28 -93 35 -268 10 -297 -8 -10 -9 -17 -3 -17 17
0 32 67 32 141 0 56 -14 128 -45 235 -5 16 -2 23 13 26 43 12 118 -213 129
-382 23 -378 -174 -736 -493 -894 -141 -70 -335 -102 -466 -77 -182 35 -430
213 -558 401 -100 147 -148 287 -157 452 -12 221 43 398 177 577 201 266 548
390 871 310z"/>
<path d="M2478 3330 c-247 -45 -446 -220 -534 -468 -19 -53 -24 -87 -24 -167
0 -132 20 -218 75 -332 77 -158 218 -282 387 -339 156 -53 323 -41 476 36 232
117 366 323 379 580 6 128 -10 209 -67 325 -80 165 -226 291 -400 346 -73 23
-220 32 -292 19z m217 -45 c136 -29 274 -118 353 -229 l33 -46 -80 -1 c-45 -1
-87 -2 -93 -3 -42 -5 -311 56 -393 90 -58 23 -107 45 -129 56 -11 6 -42 18
-69 27 l-50 17 34 21 c116 72 259 96 394 68z m193 -302 c-3 -17 -25 -18 -267
-21 l-263 -2 4 -60 c9 -129 125 -220 241 -189 48 13 103 64 112 105 11 52 19
61 42 55 l22 -6 -19 -55 c-44 -131 -192 -186 -315 -117 -22 12 -50 38 -62 56
l-23 34 0 -132 0 -131 245 0 c178 0 245 -3 245 -11 0 -27 -73 -99 -125 -123
-52 -25 -61 -26 -234 -26 -174 0 -181 1 -181 20 0 19 7 20 180 20 194 0 227 7
274 59 l19 21 -231 0 -232 0 0 260 0 260 286 0 c266 0 285 -1 282 -17z"/>
<path d="M1930 3160 c-13 -8 -13 -11 2 -26 23 -24 53 -11 38 16 -12 22 -18 24
-40 10z"/>
<path d="M1770 2730 c0 -13 5 -20 13 -17 6 2 12 10 12 17 0 7 -6 15 -12 18 -8
2 -13 -5 -13 -18z"/>
<path d="M1897 2633 c-12 -18 11 -175 37 -258 23 -72 73 -171 82 -162 3 2 -7
24 -21 48 -41 71 -76 196 -83 294 -4 50 -11 85 -15 78z"/>
<path d="M2140 2040 c62 -58 205 -132 288 -149 60 -12 251 -15 269 -3 6 4 -37
6 -95 4 -176 -6 -313 39 -453 149 l-64 50 55 -51z"/>
<path d="M3270 3250 c0 -5 5 -10 11 -10 5 0 7 5 4 10 -3 6 -8 10 -11 10 -2 0
-4 -4 -4 -10z"/>
<path d="M3470 2930 c0 -5 5 -10 10 -10 6 0 10 5 10 10 0 6 -4 10 -10 10 -5 0
-10 -4 -10 -10z"/>
<path d="M3358 3639 c-37 -21 -10 -77 31 -64 25 8 34 31 21 56 -12 21 -26 23
-52 8z"/>
<path d="M1841 3600 c-19 -16 -33 -32 -30 -34 2 -2 21 11 41 30 46 42 36 45
-11 4z"/>
<path d="M3490 3520 c0 -5 7 -10 15 -10 8 0 15 5 15 10 0 6 -7 10 -15 10 -8 0
-15 -4 -15 -10z"/>
<path d="M1679 3493 l-24 -28 28 24 c25 23 32 31 24 31 -2 0 -14 -12 -28 -27z"/>
<path d="M1540 3480 c-27 -27 -25 -55 6 -79 24 -19 28 -19 55 -5 16 8 29 19
29 23 0 5 3 16 6 24 7 20 -30 57 -56 57 -11 0 -29 -9 -40 -20z"/>
<path d="M3466 3375 c46 -61 60 -76 46 -50 -6 11 -28 38 -48 60 l-36 40 38
-50z"/>
<path d="M3690 3320 c0 -5 5 -10 11 -10 5 0 7 5 4 10 -3 6 -8 10 -11 10 -2 0
-4 -4 -4 -10z"/>
<path d="M1483 3224 c-7 -18 11 -39 26 -30 17 11 13 46 -4 46 -9 0 -18 -7 -22
-16z"/>
<path d="M1300 3130 c-39 -39 -14 -100 42 -100 53 0 79 74 36 104 -30 21 -54
20 -78 -4z m60 -10 c0 -5 -7 -10 -16 -10 -8 0 -12 5 -9 10 3 6 10 10 16 10 5
0 9 -4 9 -10z"/>
<path d="M3662 3114 c-26 -18 -30 -74 -6 -98 21 -22 77 -20 97 2 10 10 17 32
17 49 0 55 -59 81 -108 47z"/>
<path d="M1341 2944 c0 -11 3 -14 6 -6 3 7 2 16 -1 19 -3 4 -6 -2 -5 -13z"/>
<path d="M1331 2904 c0 -11 3 -14 6 -6 3 7 2 16 -1 19 -3 4 -6 -2 -5 -13z"/>
<path d="M3812 2870 c0 -14 2 -19 5 -12 2 6 2 18 0 25 -3 6 -5 1 -5 -13z"/>
<path d="M1322 2850 c0 -14 2 -19 5 -12 2 6 2 18 0 25 -3 6 -5 1 -5 -13z"/>
<path d="M3828 2675 c2 -93 5 -174 7 -180 7 -20 3 261 -4 305 -4 25 -5 -31 -3
-125z"/>
<path d="M1293 2665 c0 -27 2 -38 4 -22 2 15 2 37 0 50 -2 12 -4 0 -4 -28z"/>
<path d="M1340 2610 c0 -5 5 -10 10 -10 6 0 10 5 10 10 0 6 -4 10 -10 10 -5 0
-10 -4 -10 -10z"/>
<path d="M1293 2440 c0 -25 2 -35 4 -22 2 12 2 32 0 45 -2 12 -4 2 -4 -23z"/>
<path d="M3792 2375 c0 -16 2 -22 5 -12 2 9 2 23 0 30 -3 6 -5 -1 -5 -18z"/>
<path d="M1302 2370 c0 -14 4 -36 8 -50 6 -20 8 -21 8 -5 0 11 -4 34 -8 50 -7
27 -8 27 -8 5z"/>
<path d="M3782 2320 c0 -14 2 -19 5 -12 2 6 2 18 0 25 -3 6 -5 1 -5 -13z"/>
<path d="M1321 2284 c-1 -14 45 -148 58 -171 6 -10 10 -16 10 -13 0 12 -68
194 -68 184z"/>
<path d="M3771 2274 c0 -11 3 -14 6 -6 3 7 2 16 -1 19 -3 4 -6 -2 -5 -13z"/>
<path d="M3761 2243 c-1 -7 -15 -50 -31 -96 -27 -73 -69 -155 -134 -262 l-18
-30 20 25 c60 72 181 333 168 363 -3 9 -5 9 -5 0z"/>
<path d="M1390 2084 c0 -6 7 -19 16 -30 14 -18 14 -18 3 6 -14 31 -19 36 -19
24z"/>
<path d="M1548 1894 c-15 -32 -1 -58 34 -62 27 -3 58 20 58 43 0 45 -73 61
-92 19z"/>
<path d="M3624 1749 c-8 -14 11 -33 25 -25 6 4 11 14 11 22 0 16 -26 19 -36 3z"/>
<path d="M3399 1704 c-7 -8 -29 -24 -50 -34 -54 -28 -64 -68 -28 -114 16 -20
29 -26 60 -26 83 0 130 98 78 164 -23 30 -41 33 -60 10z"/>
<path d="M1752 1663 c-32 -27 -37 -64 -12 -96 27 -34 68 -36 98 -4 60 63 -21
155 -86 100z"/>
<path d="M1955 1480 c-3 -5 1 -10 9 -10 9 0 16 5 16 10 0 6 -4 10 -9 10 -6 0
-13 -4 -16 -10z"/>
<path d="M2100 1440 c8 -5 20 -10 25 -10 6 0 3 5 -5 10 -8 5 -19 10 -25 10 -5
0 -3 -5 5 -10z"/>
<path d="M2148 1423 c7 -3 16 -2 19 1 4 3 -2 6 -13 5 -11 0 -14 -3 -6 -6z"/>
<path d="M2188 1413 c7 -3 16 -2 19 1 4 3 -2 6 -13 5 -11 0 -14 -3 -6 -6z"/>
<path d="M2225 1400 c3 -5 8 -10 11 -10 2 0 4 5 4 10 0 6 -5 10 -11 10 -5 0
-7 -4 -4 -10z"/>
<path d="M2890 1400 c0 -5 5 -10 10 -10 6 0 10 5 10 10 0 6 -4 10 -10 10 -5 0
-10 -4 -10 -10z"/>
<path d="M2490 1320 c-24 -24 -25 -43 -4 -64 18 -19 28 -20 55 -6 36 20 17 90
-25 90 -3 0 -15 -9 -26 -20z"/>
<path d="M2368 1323 c6 -2 18 -2 25 0 6 3 1 5 -13 5 -14 0 -19 -2 -12 -5z"/>
</g>
</svg>

